<svg width="729" height="151" viewBox="0 0 729 151"
     xmlns="http://www.w3.org/2000/svg" role="img" aria-label="365-day contribution grid">
  <title>365-day contribution grid</title>
  <style>
    .bg  { fill: #0d1117; }
    .lbl { fill: #3fae55; font: 12px 'Fira Code', 'JetBrains Mono', 'Consolas', monospace; }
    .val { fill: #00FF41; font: bold 15px 'Fira Code', 'JetBrains Mono', 'Consolas', monospace; }
    .hd  { fill: #00FF41; font: bold 13px 'Fira Code', 'JetBrains Mono', 'Consolas', monospace; letter-spacing: 1px; }
  </style>
  <rect class="bg" width="729" height="151" rx="6"/>
  <text x="20" y="18" class="hd">THE LAST 365 DAYS</text>
  <rect x="30" y="43" width="11" height="11" rx="2" fill="#00FF41" opacity="0.08"><title>2025-08-25: 0</title></rect>
  <rect x="30" y="56" width="11" height="11" rx="2" fill="#00FF41" opacity="0.08"><title>2025-08-26: 0</title></rect>
  <rect x="30" y="69" width="11" height="11" rx="2" fill="#00FF41" opacity="0.08"><title>2025-08-27: 0</title></rect>
  <rect x="30" y="82" width="11" height="11" rx="2" fill="#00FF41" opacity="0.08"><title>2025-08-28: 0</title></rect>
  <rect x="30" y="95" width="11" height="11" rx="2" fill="#00FF41" opacity="0.08"><title>2025-08-29: 0</title></rect>
  <rect x="30" y="108" width="11" height="11" rx="2" fill="#00FF41" opacity="0.08"><title>2025-08-30: 0</title></rect>
  <rect x="43" y="30" width="11" height="11" rx="2" fill="#00FF41" opacity="0.08"><title>2025-08-31: 0</title></rect>
  <rect x="43" y="43" width="11" height="11" rx="2" fill="#00FF41" opacity="0.08"><title>2025-09-01: 0</title></rect>
  <rect x="43" y="56" width="11" height="11" rx="2" fill="#00FF41" opacity="0.08"><title>2025-09-02: 0</title></rect>
  <rect x="43" y="69" width="11" height="11" rx="2" fill="#00FF41" opacity="0.08"><title>2025-09-03: 0</title></rect>
  <rect x="43" y="82" width="11" height="11" rx="2" fill="#00FF41" opacity="0.08"><title>2025-09-04: 0</title></rect>
  <rect x="43" y="95" width="11" height="11" rx="2" fill="#00FF41" opacity="0.08"><title>2025-09-05: 0</title></rect>
  <rect x="43" y="108" width="11" height="11" rx="2" fill="#00FF41" opacity="0.08"><title>2025-09-06: 0</title></rect>
  <rect x="56" y="30" width="11" height="11" rx="2" fill="#00FF41" opacity="0.08"><title>2025-09-07: 0</title></rect>
  <rect x="56" y="43" width="11" height="11" rx="2" fill="#00FF41" opacity="0.08"><title>2025-09-08: 0</title></rect>
  <rect x="56" y="56" width="11" height="11" rx="2" fill="#00FF41" opacity="0.08"><title>2025-09-09: 0</title></rect>
  <rect x="56" y="69" width="11" height="11" rx="2" fill="#00FF41" opacity="0.08"><title>2025-09-10: 0</title></rect>
  <rect x="56" y="82" width="11" height="11" rx="2" fill="#00FF41" opacity="0.08"><title>2025-09-11: 0</title></rect>
  <rect x="56" y="95" width="11" height="11" rx="2" fill="#00FF41" opacity="0.08"><title>2025-09-12: 0</title></rect>
  <rect x="56" y="108" width="11" height="11" rx="2" fill="#00FF41" opacity="0.08"><title>2025-09-13: 0</title></rect>
  <rect x="69" y="30" width="11" height="11" rx="2" fill="#00FF41" opacity="0.08"><title>2025-09-14: 0</title></rect>
  <rect x="69" y="43" width="11" height="11" rx="2" fill="#00FF41" opacity="0.08"><title>2025-09-15: 0</title></rect>
  <rect x="69" y="56" width="11" height="11" rx="2" fill="#00FF41" opacity="0.08"><title>2025-09-16: 0</title></rect>
  <rect x="69" y="69" width="11" height="11" rx="2" fill="#00FF41" opacity="0.08"><title>2025-09-17: 0</title></rect>
  <rect x="69" y="82" width="11" height="11" rx="2" fill="#00FF41" opacity="0.08"><title>2025-09-18: 0</title></rect>
  <rect x="69" y="95" width="11" height="11" rx="2" fill="#00FF41" opacity="0.08"><title>2025-09-19: 0</title></rect>
  <rect x="69" y="108" width="11" height="11" rx="2" fill="#00FF41" opacity="0.08"><title>2025-09-20: 0</title></rect>
  <rect x="82" y="30" width="11" height="11" rx="2" fill="#00FF41" opacity="0.08"><title>2025-09-21: 0</title></rect>
  <rect x="82" y="43" width="11" height="11" rx="2" fill="#00FF41" opacity="0.08"><title>2025-09-22: 0</title></rect>
  <rect x="82" y="56" width="11" height="11" rx="2" fill="#00FF41" opacity="0.08"><title>2025-09-23: 0</title></rect>
  <rect x="82" y="69" width="11" height="11" rx="2" fill="#00FF41" opacity="0.08"><title>2025-09-24: 0</title></rect>
  <rect x="82" y="82" width="11" height="11" rx="2" fill="#00FF41" opacity="0.08"><title>2025-09-25: 0</title></rect>
  <rect x="82" y="95" width="11" height="11" rx="2" fill="#00FF41" opacity="0.08"><title>2025-09-26: 0</title></rect>
  <rect x="82" y="108" width="11" height="11" rx="2" fill="#00FF41" opacity="0.08"><title>2025-09-27: 0</title></rect>
  <rect x="95" y="30" width="11" height="11" rx="2" fill="#00FF41" opacity="0.08"><title>2025-09-28: 0</title></rect>
  <rect x="95" y="43" width="11" height="11" rx="2" fill="#00FF41" opacity="0.08"><title>2025-09-29: 0</title></rect>
  <rect x="95" y="56" width="11" height="11" rx="2" fill="#00FF41" opacity="0.08"><title>2025-09-30: 0</title></rect>
  <rect x="95" y="69" width="11" height="11" rx="2" fill="#00FF41" opacity="0.08"><title>2025-10-01: 0</title></rect>
  <rect x="95" y="82" width="11" height="11" rx="2" fill="#00FF41" opacity="0.08"><title>2025-10-02: 0</title></rect>
  <rect x="95" y="95" width="11" height="11" rx="2" fill="#00FF41" opacity="0.08"><title>2025-10-03: 0</title></rect>
  <rect x="95" y="108" width="11" height="11" rx="2" fill="#00FF41" opacity="0.08"><title>2025-10-04: 0</title></rect>
  <rect x="108" y="30" width="11" height="11" rx="2" fill="#00FF41" opacity="0.08"><title>2025-10-05: 0</title></rect>
  <rect x="108" y="43" width="11" height="11" rx="2" fill="#00FF41" opacity="0.08"><title>2025-10-06: 0</title></rect>
  <rect x="108" y="56" width="11" height="11" rx="2" fill="#00FF41" opacity="0.08"><title>2025-10-07: 0</title></rect>
  <rect x="108" y="69" width="11" height="11" rx="2" fill="#00FF41" opacity="0.08"><title>2025-10-08: 0</title></rect>
  <rect x="108" y="82" width="11" height="11" rx="2" fill="#00FF41" opacity="0.08"><title>2025-10-09: 0</title></rect>
  <rect x="108" y="95" width="11" height="11" rx="2" fill="#00FF41" opacity="0.08"><title>2025-10-10: 0</title></rect>
  <rect x="108" y="108" width="11" height="11" rx="2" fill="#00FF41" opacity="0.08"><title>2025-10-11: 0</title></rect>
  <rect x="121" y="30" width="11" height="11" rx="2" fill="#00FF41" opacity="0.08"><title>2025-10-12: 0</title></rect>
  <rect x="121" y="43" width="11" height="11" rx="2" fill="#00FF41" opacity="0.08"><title>2025-10-13: 0</title></rect>
  <rect x="121" y="56" width="11" height="11" rx="2" fill="#00FF41" opacity="0.08"><title>2025-10-14: 0</title></rect>
  <rect x="121" y="69" width="11" height="11" rx="2" fill="#00FF41" opacity="0.08"><title>2025-10-15: 0</title></rect>
  <rect x="121" y="82" width="11" height="11" rx="2" fill="#00FF41" opacity="0.08"><title>2025-10-16: 0</title></rect>
  <rect x="121" y="95" width="11" height="11" rx="2" fill="#00FF41" opacity="0.08"><title>2025-10-17: 0</title></rect>
  <rect x="121" y="108" width="11" height="11" rx="2" fill="#00FF41" opacity="0.08"><title>2025-10-18: 0</title></rect>
  <rect x="134" y="30" width="11" height="11" rx="2" fill="#00FF41" opacity="0.08"><title>2025-10-19: 0</title></rect>
  <rect x="134" y="43" width="11" height="11" rx="2" fill="#00FF41" opacity="0.08"><title>2025-10-20: 0</title></rect>
  <rect x="134" y="56" width="11" height="11" rx="2" fill="#00FF41" opacity="0.08"><title>2025-10-21: 0</title></rect>
  <rect x="134" y="69" width="11" height="11" rx="2" fill="#00FF41" opacity="0.08"><title>2025-10-22: 0</title></rect>
  <rect x="134" y="82" width="11" height="11" rx="2" fill="#00FF41" opacity="0.08"><title>2025-10-23: 0</title></rect>
  <rect x="134" y="95" width="11" height="11" rx="2" fill="#00FF41" opacity="0.08"><title>2025-10-24: 0</title></rect>
  <rect x="134" y="108" width="11" height="11" rx="2" fill="#00FF41" opacity="0.08"><title>2025-10-25: 0</title></rect>
  <rect x="147" y="30" width="11" height="11" rx="2" fill="#00FF41" opacity="0.08"><title>2025-10-26: 0</title></rect>
  <rect x="147" y="43" width="11" height="11" rx="2" fill="#00FF41" opacity="0.08"><title>2025-10-27: 0</title></rect>
  <rect x="147" y="56" width="11" height="11" rx="2" fill="#00FF41" opacity="0.08"><title>2025-10-28: 0</title></rect>
  <rect x="147" y="69" width="11" height="11" rx="2" fill="#00FF41" opacity="0.08"><title>2025-10-29: 0</title></rect>
  <rect x="147" y="82" width="11" height="11" rx="2" fill="#00FF41" opacity="0.08"><title>2025-10-30: 0</title></rect>
  <rect x="147" y="95" width="11" height="11" rx="2" fill="#00FF41" opacity="0.08"><title>2025-10-31: 0</title></rect>
  <rect x="147" y="108" width="11" height="11" rx="2" fill="#00FF41" opacity="0.08"><title>2025-11-01: 0</title></rect>
  <rect x="160" y="30" width="11" height="11" rx="2" fill="#00FF41" opacity="0.08"><title>2025-11-02: 0</title></rect>
  <rect x="160" y="43" width="11" height="11" rx="2" fill="#00FF41" opacity="0.08"><title>2025-11-03: 0</title></rect>
  <rect x="160" y="56" width="11" height="11" rx="2" fill="#00FF41" opacity="0.08"><title>2025-11-04: 0</title></rect>
  <rect x="160" y="69" width="11" height="11" rx="2" fill="#00FF41" opacity="0.08"><title>2025-11-05: 0</title></rect>
  <rect x="160" y="82" width="11" height="11" rx="2" fill="#00FF41" opacity="0.08"><title>2025-11-06: 0</title></rect>
  <rect x="160" y="95" width="11" height="11" rx="2" fill="#00FF41" opacity="0.08"><title>2025-11-07: 0</title></rect>
  <rect x="160" y="108" width="11" height="11" rx="2" fill="#00FF41" opacity="0.08"><title>2025-11-08: 0</title></rect>
  <rect x="173" y="30" width="11" height="11" rx="2" fill="#00FF41" opacity="0.08"><title>2025-11-09: 0</title></rect>
  <rect x="173" y="43" width="11" height="11" rx="2" fill="#00FF41" opacity="0.08"><title>2025-11-10: 0</title></rect>
  <rect x="173" y="56" width="11" height="11" rx="2" fill="#00FF41" opacity="0.08"><title>2025-11-11: 0</title></rect>
  <rect x="173" y="69" width="11" height="11" rx="2" fill="#00FF41" opacity="0.08"><title>2025-11-12: 0</title></rect>
  <rect x="173" y="82" width="11" height="11" rx="2" fill="#00FF41" opacity="0.08"><title>2025-11-13: 0</title></rect>
  <rect x="173" y="95" width="11" height="11" rx="2" fill="#00FF41" opacity="0.08"><title>2025-11-14: 0</title></rect>
  <rect x="173" y="108" width="11" height="11" rx="2" fill="#00FF41" opacity="0.08"><title>2025-11-15: 0</title></rect>
  <rect x="186" y="30" width="11" height="11" rx="2" fill="#00FF41" opacity="0.08"><title>2025-11-16: 0</title></rect>
  <rect x="186" y="43" width="11" height="11" rx="2" fill="#00FF41" opacity="0.08"><title>2025-11-17: 0</title></rect>
  <rect x="186" y="56" width="11" height="11" rx="2" fill="#00FF41" opacity="0.08"><title>2025-11-18: 0</title></rect>
  <rect x="186" y="69" width="11" height="11" rx="2" fill="#00FF41" opacity="0.08"><title>2025-11-19: 0</title></rect>
  <rect x="186" y="82" width="11" height="11" rx="2" fill="#00FF41" opacity="0.08"><title>2025-11-20: 0</title></rect>
  <rect x="186" y="95" width="11" height="11" rx="2" fill="#00FF41" opacity="0.08"><title>2025-11-21: 0</title></rect>
  <rect x="186" y="108" width="11" height="11" rx="2" fill="#00FF41" opacity="0.08"><title>2025-11-22: 0</title></rect>
  <rect x="199" y="30" width="11" height="11" rx="2" fill="#00FF41" opacity="0.08"><title>2025-11-23: 0</title></rect>
  <rect x="199" y="43" width="11" height="11" rx="2" fill="#00FF41" opacity="0.08"><title>2025-11-24: 0</title></rect>
  <rect x="199" y="56" width="11" height="11" rx="2" fill="#00FF41" opacity="0.08"><title>2025-11-25: 0</title></rect>
  <rect x="199" y="69" width="11" height="11" rx="2" fill="#00FF41" opacity="0.08"><title>2025-11-26: 0</title></rect>
  <rect x="199" y="82" width="11" height="11" rx="2" fill="#00FF41" opacity="0.08"><title>2025-11-27: 0</title></rect>
  <rect x="199" y="95" width="11" height="11" rx="2" fill="#00FF41" opacity="0.08"><title>2025-11-28: 0</title></rect>
  <rect x="199" y="108" width="11" height="11" rx="2" fill="#00FF41" opacity="0.08"><title>2025-11-29: 0</title></rect>
  <rect x="212" y="30" width="11" height="11" rx="2" fill="#00FF41" opacity="0.08"><title>2025-11-30: 0</title></rect>
  <rect x="212" y="43" width="11" height="11" rx="2" fill="#00FF41" opacity="0.08"><title>2025-12-01: 0</title></rect>
  <rect x="212" y="56" width="11" height="11" rx="2" fill="#00FF41" opacity="0.08"><title>2025-12-02: 0</title></rect>
  <rect x="212" y="69" width="11" height="11" rx="2" fill="#00FF41" opacity="0.08"><title>2025-12-03: 0</title></rect>
  <rect x="212" y="82" width="11" height="11" rx="2" fill="#00FF41" opacity="0.08"><title>2025-12-04: 0</title></rect>
  <rect x="212" y="95" width="11" height="11" rx="2" fill="#00FF41" opacity="0.08"><title>2025-12-05: 0</title></rect>
  <rect x="212" y="108" width="11" height="11" rx="2" fill="#00FF41" opacity="0.08"><title>2025-12-06: 0</title></rect>
  <rect x="225" y="30" width="11" height="11" rx="2" fill="#00FF41" opacity="0.08"><title>2025-12-07: 0</title></rect>
  <rect x="225" y="43" width="11" height="11" rx="2" fill="#00FF41" opacity="0.08"><title>2025-12-08: 0</title></rect>
  <rect x="225" y="56" width="11" height="11" rx="2" fill="#00FF41" opacity="0.08"><title>2025-12-09: 0</title></rect>
  <rect x="225" y="69" width="11" height="11" rx="2" fill="#00FF41" opacity="0.08"><title>2025-12-10: 0</title></rect>
  <rect x="225" y="82" width="11" height="11" rx="2" fill="#00FF41" opacity="0.08"><title>2025-12-11: 0</title></rect>
  <rect x="225" y="95" width="11" height="11" rx="2" fill="#00FF41" opacity="0.08"><title>2025-12-12: 0</title></rect>
  <rect x="225" y="108" width="11" height="11" rx="2" fill="#00FF41" opacity="0.08"><title>2025-12-13: 0</title></rect>
  <rect x="238" y="30" width="11" height="11" rx="2" fill="#00FF41" opacity="0.08"><title>2025-12-14: 0</title></rect>
  <rect x="238" y="43" width="11" height="11" rx="2" fill="#00FF41" opacity="0.08"><title>2025-12-15: 0</title></rect>
  <rect x="238" y="56" width="11" height="11" rx="2" fill="#00FF41" opacity="0.08"><title>2025-12-16: 0</title></rect>
  <rect x="238" y="69" width="11" height="11" rx="2" fill="#00FF41" opacity="0.08"><title>2025-12-17: 0</title></rect>
  <rect x="238" y="82" width="11" height="11" rx="2" fill="#00FF41" opacity="0.08"><title>2025-12-18: 0</title></rect>
  <rect x="238" y="95" width="11" height="11" rx="2" fill="#00FF41" opacity="0.08"><title>2025-12-19: 0</title></rect>
  <rect x="238" y="108" width="11" height="11" rx="2" fill="#00FF41" opacity="0.08"><title>2025-12-20: 0</title></rect>
  <rect x="251" y="30" width="11" height="11" rx="2" fill="#00FF41" opacity="0.08"><title>2025-12-21: 0</title></rect>
  <rect x="251" y="43" width="11" height="11" rx="2" fill="#00FF41" opacity="0.08"><title>2025-12-22: 0</title></rect>
  <rect x="251" y="56" width="11" height="11" rx="2" fill="#00FF41" opacity="0.08"><title>2025-12-23: 0</title></rect>
  <rect x="251" y="69" width="11" height="11" rx="2" fill="#00FF41" opacity="0.08"><title>2025-12-24: 0</title></rect>
  <rect x="251" y="82" width="11" height="11" rx="2" fill="#00FF41" opacity="0.08"><title>2025-12-25: 0</title></rect>
  <rect x="251" y="95" width="11" height="11" rx="2" fill="#00FF41" opacity="0.08"><title>2025-12-26: 0</title></rect>
  <rect x="251" y="108" width="11" height="11" rx="2" fill="#00FF41" opacity="0.08"><title>2025-12-27: 0</title></rect>
  <rect x="264" y="30" width="11" height="11" rx="2" fill="#00FF41" opacity="0.08"><title>2025-12-28: 0</title></rect>
  <rect x="264" y="43" width="11" height="11" rx="2" fill="#00FF41" opacity="0.08"><title>2025-12-29: 0</title></rect>
  <rect x="264" y="56" width="11" height="11" rx="2" fill="#00FF41" opacity="0.08"><title>2025-12-30: 0</title></rect>
  <rect x="264" y="69" width="11" height="11" rx="2" fill="#00FF41" opacity="0.08"><title>2025-12-31: 0</title></rect>
  <rect x="264" y="82" width="11" height="11" rx="2" fill="#00FF41" opacity="0.08"><title>2026-01-01: 0</title></rect>
  <rect x="264" y="95" width="11" height="11" rx="2" fill="#00FF41" opacity="0.08"><title>2026-01-02: 0</title></rect>
  <rect x="264" y="108" width="11" height="11" rx="2" fill="#00FF41" opacity="0.08"><title>2026-01-03: 0</title></rect>
  <rect x="277" y="30" width="11" height="11" rx="2" fill="#00FF41" opacity="0.08"><title>2026-01-04: 0</title></rect>
  <rect x="277" y="43" width="11" height="11" rx="2" fill="#00FF41" opacity="0.08"><title>2026-01-05: 0</title></rect>
  <rect x="277" y="56" width="11" height="11" rx="2" fill="#00FF41" opacity="0.08"><title>2026-01-06: 0</title></rect>
  <rect x="277" y="69" width="11" height="11" rx="2" fill="#00FF41" opacity="0.08"><title>2026-01-07: 0</title></rect>
  <rect x="277" y="82" width="11" height="11" rx="2" fill="#00FF41" opacity="0.08"><title>2026-01-08: 0</title></rect>
  <rect x="277" y="95" width="11" height="11" rx="2" fill="#00FF41" opacity="0.08"><title>2026-01-09: 0</title></rect>
  <rect x="277" y="108" width="11" height="11" rx="2" fill="#00FF41" opacity="0.08"><title>2026-01-10: 0</title></rect>
  <rect x="290" y="30" width="11" height="11" rx="2" fill="#00FF41" opacity="0.08"><title>2026-01-11: 0</title></rect>
  <rect x="290" y="43" width="11" height="11" rx="2" fill="#00FF41" opacity="0.08"><title>2026-01-12: 0</title></rect>
  <rect x="290" y="56" width="11" height="11" rx="2" fill="#00FF41" opacity="0.08"><title>2026-01-13: 0</title></rect>
  <rect x="290" y="69" width="11" height="11" rx="2" fill="#00FF41" opacity="0.08"><title>2026-01-14: 0</title></rect>
  <rect x="290" y="82" width="11" height="11" rx="2" fill="#00FF41" opacity="0.08"><title>2026-01-15: 0</title></rect>
  <rect x="290" y="95" width="11" height="11" rx="2" fill="#00FF41" opacity="0.08"><title>2026-01-16: 0</title></rect>
  <rect x="290" y="108" width="11" height="11" rx="2" fill="#00FF41" opacity="0.08"><title>2026-01-17: 0</title></rect>
  <rect x="303" y="30" width="11" height="11" rx="2" fill="#00FF41" opacity="0.08"><title>2026-01-18: 0</title></rect>
  <rect x="303" y="43" width="11" height="11" rx="2" fill="#00FF41" opacity="0.08"><title>2026-01-19: 0</title></rect>
  <rect x="303" y="56" width="11" height="11" rx="2" fill="#00FF41" opacity="0.08"><title>2026-01-20: 0</title></rect>
  <rect x="303" y="69" width="11" height="11" rx="2" fill="#00FF41" opacity="0.08"><title>2026-01-21: 0</title></rect>
  <rect x="303" y="82" width="11" height="11" rx="2" fill="#00FF41" opacity="0.08"><title>2026-01-22: 0</title></rect>
  <rect x="303" y="95" width="11" height="11" rx="2" fill="#00FF41" opacity="0.08"><title>2026-01-23: 0</title></rect>
  <rect x="303" y="108" width="11" height="11" rx="2" fill="#00FF41" opacity="0.08"><title>2026-01-24: 0</title></rect>
  <rect x="316" y="30" width="11" height="11" rx="2" fill="#00FF41" opacity="0.08"><title>2026-01-25: 0</title></rect>
  <rect x="316" y="43" width="11" height="11" rx="2" fill="#00FF41" opacity="0.08"><title>2026-01-26: 0</title></rect>
  <rect x="316" y="56" width="11" height="11" rx="2" fill="#00FF41" opacity="0.08"><title>2026-01-27: 0</title></rect>
  <rect x="316" y="69" width="11" height="11" rx="2" fill="#00FF41" opacity="0.08"><title>2026-01-28: 0</title></rect>
  <rect x="316" y="82" width="11" height="11" rx="2" fill="#00FF41" opacity="0.08"><title>2026-01-29: 0</title></rect>
  <rect x="316" y="95" width="11" height="11" rx="2" fill="#00FF41" opacity="0.08"><title>2026-01-30: 0</title></rect>
  <rect x="316" y="108" width="11" height="11" rx="2" fill="#00FF41" opacity="0.08"><title>2026-01-31: 0</title></rect>
  <rect x="329" y="30" width="11" height="11" rx="2" fill="#00FF41" opacity="0.08"><title>2026-02-01: 0</title></rect>
  <rect x="329" y="43" width="11" height="11" rx="2" fill="#00FF41" opacity="0.08"><title>2026-02-02: 0</title></rect>
  <rect x="329" y="56" width="11" height="11" rx="2" fill="#00FF41" opacity="0.08"><title>2026-02-03: 0</title></rect>
  <rect x="329" y="69" width="11" height="11" rx="2" fill="#00FF41" opacity="0.08"><title>2026-02-04: 0</title></rect>
  <rect x="329" y="82" width="11" height="11" rx="2" fill="#00FF41" opacity="0.08"><title>2026-02-05: 0</title></rect>
  <rect x="329" y="95" width="11" height="11" rx="2" fill="#00FF41" opacity="0.08"><title>2026-02-06: 0</title></rect>
  <rect x="329" y="108" width="11" height="11" rx="2" fill="#00FF41" opacity="0.08"><title>2026-02-07: 0</title></rect>
  <rect x="342" y="30" width="11" height="11" rx="2" fill="#00FF41" opacity="0.08"><title>2026-02-08: 0</title></rect>
  <rect x="342" y="43" width="11" height="11" rx="2" fill="#00FF41" opacity="0.08"><title>2026-02-09: 0</title></rect>
  <rect x="342" y="56" width="11" height="11" rx="2" fill="#00FF41" opacity="0.08"><title>2026-02-10: 0</title></rect>
  <rect x="342" y="69" width="11" height="11" rx="2" fill="#00FF41" opacity="0.08"><title>2026-02-11: 0</title></rect>
  <rect x="342" y="82" width="11" height="11" rx="2" fill="#00FF41" opacity="0.08"><title>2026-02-12: 0</title></rect>
  <rect x="342" y="95" width="11" height="11" rx="2" fill="#00FF41" opacity="0.08"><title>2026-02-13: 0</title></rect>
  <rect x="342" y="108" width="11" height="11" rx="2" fill="#00FF41" opacity="0.08"><title>2026-02-14: 0</title></rect>
  <rect x="355" y="30" width="11" height="11" rx="2" fill="#00FF41" opacity="0.08"><title>2026-02-15: 0</title></rect>
  <rect x="355" y="43" width="11" height="11" rx="2" fill="#00FF41" opacity="0.08"><title>2026-02-16: 0</title></rect>
  <rect x="355" y="56" width="11" height="11" rx="2" fill="#00FF41" opacity="0.08"><title>2026-02-17: 0</title></rect>
  <rect x="355" y="69" width="11" height="11" rx="2" fill="#00FF41" opacity="0.08"><title>2026-02-18: 0</title></rect>
  <rect x="355" y="82" width="11" height="11" rx="2" fill="#00FF41" opacity="0.08"><title>2026-02-19: 0</title></rect>
  <rect x="355" y="95" width="11" height="11" rx="2" fill="#00FF41" opacity="0.08"><title>2026-02-20: 0</title></rect>
  <rect x="355" y="108" width="11" height="11" rx="2" fill="#00FF41" opacity="0.08"><title>2026-02-21: 0</title></rect>
  <rect x="368" y="30" width="11" height="11" rx="2" fill="#00FF41" opacity="0.08"><title>2026-02-22: 0</title></rect>
  <rect x="368" y="43" width="11" height="11" rx="2" fill="#00FF41" opacity="0.08"><title>2026-02-23: 0</title></rect>
  <rect x="368" y="56" width="11" height="11" rx="2" fill="#00FF41" opacity="0.08"><title>2026-02-24: 0</title></rect>
  <rect x="368" y="69" width="11" height="11" rx="2" fill="#00FF41" opacity="0.08"><title>2026-02-25: 0</title></rect>
  <rect x="368" y="82" width="11" height="11" rx="2" fill="#00FF41" opacity="0.08"><title>2026-02-26: 0</title></rect>
  <rect x="368" y="95" width="11" height="11" rx="2" fill="#00FF41" opacity="0.08"><title>2026-02-27: 0</title></rect>
  <rect x="368" y="108" width="11" height="11" rx="2" fill="#00FF41" opacity="0.08"><title>2026-02-28: 0</title></rect>
  <rect x="381" y="30" width="11" height="11" rx="2" fill="#00FF41" opacity="0.08"><title>2026-03-01: 0</title></rect>
  <rect x="381" y="43" width="11" height="11" rx="2" fill="#00FF41" opacity="0.08"><title>2026-03-02: 0</title></rect>
  <rect x="381" y="56" width="11" height="11" rx="2" fill="#00FF41" opacity="0.08"><title>2026-03-03: 0</title></rect>
  <rect x="381" y="69" width="11" height="11" rx="2" fill="#00FF41" opacity="0.08"><title>2026-03-04: 0</title></rect>
  <rect x="381" y="82" width="11" height="11" rx="2" fill="#00FF41" opacity="0.08"><title>2026-03-05: 0</title></rect>
  <rect x="381" y="95" width="11" height="11" rx="2" fill="#00FF41" opacity="0.08"><title>2026-03-06: 0</title></rect>
  <rect x="381" y="108" width="11" height="11" rx="2" fill="#00FF41" opacity="0.08"><title>2026-03-07: 0</title></rect>
  <rect x="394" y="30" width="11" height="11" rx="2" fill="#00FF41" opacity="0.08"><title>2026-03-08: 0</title></rect>
  <rect x="394" y="43" width="11" height="11" rx="2" fill="#00FF41" opacity="0.08"><title>2026-03-09: 0</title></rect>
  <rect x="394" y="56" width="11" height="11" rx="2" fill="#00FF41" opacity="0.08"><title>2026-03-10: 0</title></rect>
  <rect x="394" y="69" width="11" height="11" rx="2" fill="#00FF41" opacity="0.08"><title>2026-03-11: 0</title></rect>
  <rect x="394" y="82" width="11" height="11" rx="2" fill="#00FF41" opacity="0.08"><title>2026-03-12: 0</title></rect>
  <rect x="394" y="95" width="11" height="11" rx="2" fill="#00FF41" opacity="0.08"><title>2026-03-13: 0</title></rect>
  <rect x="394" y="108" width="11" height="11" rx="2" fill="#00FF41" opacity="0.08"><title>2026-03-14: 0</title></rect>
  <rect x="407" y="30" width="11" height="11" rx="2" fill="#00FF41" opacity="0.08"><title>2026-03-15: 0</title></rect>
  <rect x="407" y="43" width="11" height="11" rx="2" fill="#00FF41" opacity="0.08"><title>2026-03-16: 0</title></rect>
  <rect x="407" y="56" width="11" height="11" rx="2" fill="#00FF41" opacity="0.08"><title>2026-03-17: 0</title></rect>
  <rect x="407" y="69" width="11" height="11" rx="2" fill="#00FF41" opacity="0.08"><title>2026-03-18: 0</title></rect>
  <rect x="407" y="82" width="11" height="11" rx="2" fill="#00FF41" opacity="0.08"><title>2026-03-19: 0</title></rect>
  <rect x="407" y="95" width="11" height="11" rx="2" fill="#00FF41" opacity="0.08"><title>2026-03-20: 0</title></rect>
  <rect x="407" y="108" width="11" height="11" rx="2" fill="#00FF41" opacity="0.08"><title>2026-03-21: 0</title></rect>
  <rect x="420" y="30" width="11" height="11" rx="2" fill="#00FF41" opacity="0.08"><title>2026-03-22: 0</title></rect>
  <rect x="420" y="43" width="11" height="11" rx="2" fill="#00FF41" opacity="0.08"><title>2026-03-23: 0</title></rect>
  <rect x="420" y="56" width="11" height="11" rx="2" fill="#00FF41" opacity="0.08"><title>2026-03-24: 0</title></rect>
  <rect x="420" y="69" width="11" height="11" rx="2" fill="#00FF41" opacity="0.08"><title>2026-03-25: 0</title></rect>
  <rect x="420" y="82" width="11" height="11" rx="2" fill="#00FF41" opacity="0.08"><title>2026-03-26: 0</title></rect>
  <rect x="420" y="95" width="11" height="11" rx="2" fill="#00FF41" opacity="0.08"><title>2026-03-27: 0</title></rect>
  <rect x="420" y="108" width="11" height="11" rx="2" fill="#00FF41" opacity="0.08"><title>2026-03-28: 0</title></rect>
  <rect x="433" y="30" width="11" height="11" rx="2" fill="#00FF41" opacity="0.08"><title>2026-03-29: 0</title></rect>
  <rect x="433" y="43" width="11" height="11" rx="2" fill="#00FF41" opacity="0.08"><title>2026-03-30: 0</title></rect>
  <rect x="433" y="56" width="11" height="11" rx="2" fill="#00FF41" opacity="0.08"><title>2026-03-31: 0</title></rect>
  <rect x="433" y="69" width="11" height="11" rx="2" fill="#00FF41" opacity="0.08"><title>2026-04-01: 0</title></rect>
  <rect x="433" y="82" width="11" height="11" rx="2" fill="#00FF41" opacity="0.08"><title>2026-04-02: 0</title></rect>
  <rect x="433" y="95" width="11" height="11" rx="2" fill="#00FF41" opacity="0.08"><title>2026-04-03: 0</title></rect>
  <rect x="433" y="108" width="11" height="11" rx="2" fill="#00FF41" opacity="0.08"><title>2026-04-04: 0</title></rect>
  <rect x="446" y="30" width="11" height="11" rx="2" fill="#00FF41" opacity="0.08"><title>2026-04-05: 0</title></rect>
  <rect x="446" y="43" width="11" height="11" rx="2" fill="#00FF41" opacity="0.08"><title>2026-04-06: 0</title></rect>
  <rect x="446" y="56" width="11" height="11" rx="2" fill="#00FF41" opacity="0.08"><title>2026-04-07: 0</title></rect>
  <rect x="446" y="69" width="11" height="11" rx="2" fill="#00FF41" opacity="0.08"><title>2026-04-08: 0</title></rect>
  <rect x="446" y="82" width="11" height="11" rx="2" fill="#00FF41" opacity="0.08"><title>2026-04-09: 0</title></rect>
  <rect x="446" y="95" width="11" height="11" rx="2" fill="#00FF41" opacity="0.08"><title>2026-04-10: 0</title></rect>
  <rect x="446" y="108" width="11" height="11" rx="2" fill="#00FF41" opacity="0.08"><title>2026-04-11: 0</title></rect>
  <rect x="459" y="30" width="11" height="11" rx="2" fill="#00FF41" opacity="0.08"><title>2026-04-12: 0</title></rect>
  <rect x="459" y="43" width="11" height="11" rx="2" fill="#00FF41" opacity="0.08"><title>2026-04-13: 0</title></rect>
  <rect x="459" y="56" width="11" height="11" rx="2" fill="#00FF41" opacity="0.08"><title>2026-04-14: 0</title></rect>
  <rect x="459" y="69" width="11" height="11" rx="2" fill="#00FF41" opacity="0.08"><title>2026-04-15: 0</title></rect>
  <rect x="459" y="82" width="11" height="11" rx="2" fill="#00FF41" opacity="0.08"><title>2026-04-16: 0</title></rect>
  <rect x="459" y="95" width="11" height="11" rx="2" fill="#00FF41" opacity="0.08"><title>2026-04-17: 0</title></rect>
  <rect x="459" y="108" width="11" height="11" rx="2" fill="#00FF41" opacity="0.08"><title>2026-04-18: 0</title></rect>
  <rect x="472" y="30" width="11" height="11" rx="2" fill="#00FF41" opacity="0.08"><title>2026-04-19: 0</title></rect>
  <rect x="472" y="43" width="11" height="11" rx="2" fill="#00FF41" opacity="0.08"><title>2026-04-20: 0</title></rect>
  <rect x="472" y="56" width="11" height="11" rx="2" fill="#00FF41" opacity="0.08"><title>2026-04-21: 0</title></rect>
  <rect x="472" y="69" width="11" height="11" rx="2" fill="#00FF41" opacity="0.08"><title>2026-04-22: 0</title></rect>
  <rect x="472" y="82" width="11" height="11" rx="2" fill="#00FF41" opacity="0.08"><title>2026-04-23: 0</title></rect>
  <rect x="472" y="95" width="11" height="11" rx="2" fill="#00FF41" opacity="0.08"><title>2026-04-24: 0</title></rect>
  <rect x="472" y="108" width="11" height="11" rx="2" fill="#00FF41" opacity="0.08"><title>2026-04-25: 0</title></rect>
  <rect x="485" y="30" width="11" height="11" rx="2" fill="#00FF41" opacity="0.08"><title>2026-04-26: 0</title></rect>
  <rect x="485" y="43" width="11" height="11" rx="2" fill="#00FF41" opacity="0.08"><title>2026-04-27: 0</title></rect>
  <rect x="485" y="56" width="11" height="11" rx="2" fill="#00FF41" opacity="0.08"><title>2026-04-28: 0</title></rect>
  <rect x="485" y="69" width="11" height="11" rx="2" fill="#00FF41" opacity="0.08"><title>2026-04-29: 0</title></rect>
  <rect x="485" y="82" width="11" height="11" rx="2" fill="#00FF41" opacity="0.08"><title>2026-04-30: 0</title></rect>
  <rect x="485" y="95" width="11" height="11" rx="2" fill="#00FF41" opacity="0.08"><title>2026-05-01: 0</title></rect>
  <rect x="485" y="108" width="11" height="11" rx="2" fill="#00FF41" opacity="0.08"><title>2026-05-02: 0</title></rect>
  <rect x="498" y="30" width="11" height="11" rx="2" fill="#00FF41" opacity="0.08"><title>2026-05-03: 0</title></rect>
  <rect x="498" y="43" width="11" height="11" rx="2" fill="#00FF41" opacity="0.08"><title>2026-05-04: 0</title></rect>
  <rect x="498" y="56" width="11" height="11" rx="2" fill="#00FF41" opacity="0.08"><title>2026-05-05: 0</title></rect>
  <rect x="498" y="69" width="11" height="11" rx="2" fill="#00FF41" opacity="0.08"><title>2026-05-06: 0</title></rect>
  <rect x="498" y="82" width="11" height="11" rx="2" fill="#00FF41" opacity="0.08"><title>2026-05-07: 0</title></rect>
  <rect x="498" y="95" width="11" height="11" rx="2" fill="#00FF41" opacity="0.08"><title>2026-05-08: 0</title></rect>
  <rect x="498" y="108" width="11" height="11" rx="2" fill="#00FF41" opacity="0.08"><title>2026-05-09: 0</title></rect>
  <rect x="511" y="30" width="11" height="11" rx="2" fill="#00FF41" opacity="0.08"><title>2026-05-10: 0</title></rect>
  <rect x="511" y="43" width="11" height="11" rx="2" fill="#00FF41" opacity="0.08"><title>2026-05-11: 0</title></rect>
  <rect x="511" y="56" width="11" height="11" rx="2" fill="#00FF41" opacity="0.08"><title>2026-05-12: 0</title></rect>
  <rect x="511" y="69" width="11" height="11" rx="2" fill="#00FF41" opacity="0.08"><title>2026-05-13: 0</title></rect>
  <rect x="511" y="82" width="11" height="11" rx="2" fill="#00FF41" opacity="0.08"><title>2026-05-14: 0</title></rect>
  <rect x="511" y="95" width="11" height="11" rx="2" fill="#00FF41" opacity="0.08"><title>2026-05-15: 0</title></rect>
  <rect x="511" y="108" width="11" height="11" rx="2" fill="#00FF41" opacity="0.08"><title>2026-05-16: 0</title></rect>
  <rect x="524" y="30" width="11" height="11" rx="2" fill="#00FF41" opacity="0.08"><title>2026-05-17: 0</title></rect>
  <rect x="524" y="43" width="11" height="11" rx="2" fill="#00FF41" opacity="0.08"><title>2026-05-18: 0</title></rect>
  <rect x="524" y="56" width="11" height="11" rx="2" fill="#00FF41" opacity="0.08"><title>2026-05-19: 0</title></rect>
  <rect x="524" y="69" width="11" height="11" rx="2" fill="#00FF41" opacity="0.08"><title>2026-05-20: 0</title></rect>
  <rect x="524" y="82" width="11" height="11" rx="2" fill="#00FF41" opacity="0.08"><title>2026-05-21: 0</title></rect>
  <rect x="524" y="95" width="11" height="11" rx="2" fill="#00FF41" opacity="0.08"><title>2026-05-22: 0</title></rect>
  <rect x="524" y="108" width="11" height="11" rx="2" fill="#00FF41" opacity="0.08"><title>2026-05-23: 0</title></rect>
  <rect x="537" y="30" width="11" height="11" rx="2" fill="#00FF41" opacity="0.08"><title>2026-05-24: 0</title></rect>
  <rect x="537" y="43" width="11" height="11" rx="2" fill="#00FF41" opacity="0.08"><title>2026-05-25: 0</title></rect>
  <rect x="537" y="56" width="11" height="11" rx="2" fill="#00FF41" opacity="0.55"><title>2026-05-26: 10</title></rect>
  <rect x="537" y="69" width="11" height="11" rx="2" fill="#00FF41" opacity="0.08"><title>2026-05-27: 0</title></rect>
  <rect x="537" y="82" width="11" height="11" rx="2" fill="#00FF41" opacity="0.55"><title>2026-05-28: 7</title></rect>
  <rect x="537" y="95" width="11" height="11" rx="2" fill="#00FF41" opacity="0.55"><title>2026-05-29: 6</title></rect>
  <rect x="537" y="108" width="11" height="11" rx="2" fill="#00FF41" opacity="0.08"><title>2026-05-30: 0</title></rect>
  <rect x="550" y="30" width="11" height="11" rx="2" fill="#00FF41" opacity="0.08"><title>2026-05-31: 0</title></rect>
  <rect x="550" y="43" width="11" height="11" rx="2" fill="#00FF41" opacity="0.08"><title>2026-06-01: 0</title></rect>
  <rect x="550" y="56" width="11" height="11" rx="2" fill="#00FF41" opacity="0.08"><title>2026-06-02: 0</title></rect>
  <rect x="550" y="69" width="11" height="11" rx="2" fill="#00FF41" opacity="0.08"><title>2026-06-03: 0</title></rect>
  <rect x="550" y="82" width="11" height="11" rx="2" fill="#00FF41" opacity="0.35"><title>2026-06-04: 1</title></rect>
  <rect x="550" y="95" width="11" height="11" rx="2" fill="#00FF41" opacity="0.35"><title>2026-06-05: 2</title></rect>
  <rect x="550" y="108" width="11" height="11" rx="2" fill="#00FF41" opacity="0.08"><title>2026-06-06: 0</title></rect>
  <rect x="563" y="30" width="11" height="11" rx="2" fill="#00FF41" opacity="0.08"><title>2026-06-07: 0</title></rect>
  <rect x="563" y="43" width="11" height="11" rx="2" fill="#00FF41" opacity="0.08"><title>2026-06-08: 0</title></rect>
  <rect x="563" y="56" width="11" height="11" rx="2" fill="#00FF41" opacity="0.08"><title>2026-06-09: 0</title></rect>
  <rect x="563" y="69" width="11" height="11" rx="2" fill="#00FF41" opacity="1.0"><title>2026-06-10: 16</title></rect>
  <rect x="563" y="82" width="11" height="11" rx="2" fill="#00FF41" opacity="0.08"><title>2026-06-11: 0</title></rect>
  <rect x="563" y="95" width="11" height="11" rx="2" fill="#00FF41" opacity="0.08"><title>2026-06-12: 0</title></rect>
  <rect x="563" y="108" width="11" height="11" rx="2" fill="#00FF41" opacity="0.08"><title>2026-06-13: 0</title></rect>
  <rect x="576" y="30" width="11" height="11" rx="2" fill="#00FF41" opacity="0.08"><title>2026-06-14: 0</title></rect>
  <rect x="576" y="43" width="11" height="11" rx="2" fill="#00FF41" opacity="0.08"><title>2026-06-15: 0</title></rect>
  <rect x="576" y="56" width="11" height="11" rx="2" fill="#00FF41" opacity="0.35"><title>2026-06-16: 1</title></rect>
  <rect x="576" y="69" width="11" height="11" rx="2" fill="#00FF41" opacity="0.08"><title>2026-06-17: 0</title></rect>
  <rect x="576" y="82" width="11" height="11" rx="2" fill="#00FF41" opacity="0.08"><title>2026-06-18: 0</title></rect>
  <rect x="576" y="95" width="11" height="11" rx="2" fill="#00FF41" opacity="0.08"><title>2026-06-19: 0</title></rect>
  <rect x="576" y="108" width="11" height="11" rx="2" fill="#00FF41" opacity="0.08"><title>2026-06-20: 0</title></rect>
  <rect x="589" y="30" width="11" height="11" rx="2" fill="#00FF41" opacity="0.35"><title>2026-06-21: 1</title></rect>
  <rect x="589" y="43" width="11" height="11" rx="2" fill="#00FF41" opacity="0.08"><title>2026-06-22: 0</title></rect>
  <rect x="589" y="56" width="11" height="11" rx="2" fill="#00FF41" opacity="0.08"><title>2026-06-23: 0</title></rect>
  <rect x="589" y="69" width="11" height="11" rx="2" fill="#00FF41" opacity="0.35"><title>2026-06-24: 1</title></rect>
  <rect x="589" y="82" width="11" height="11" rx="2" fill="#00FF41" opacity="0.08"><title>2026-06-25: 0</title></rect>
  <rect x="589" y="95" width="11" height="11" rx="2" fill="#00FF41" opacity="0.08"><title>2026-06-26: 0</title></rect>
  <rect x="589" y="108" width="11" height="11" rx="2" fill="#00FF41" opacity="0.08"><title>2026-06-27: 0</title></rect>
  <rect x="602" y="30" width="11" height="11" rx="2" fill="#00FF41" opacity="0.08"><title>2026-06-28: 0</title></rect>
  <rect x="602" y="43" width="11" height="11" rx="2" fill="#00FF41" opacity="0.08"><title>2026-06-29: 0</title></rect>
  <rect x="602" y="56" width="11" height="11" rx="2" fill="#00FF41" opacity="0.08"><title>2026-06-30: 0</title></rect>
  <rect x="602" y="69" width="11" height="11" rx="2" fill="#00FF41" opacity="0.08"><title>2026-07-01: 0</title></rect>
  <rect x="602" y="82" width="11" height="11" rx="2" fill="#00FF41" opacity="0.08"><title>2026-07-02: 0</title></rect>
  <rect x="602" y="95" width="11" height="11" rx="2" fill="#00FF41" opacity="0.08"><title>2026-07-03: 0</title></rect>
  <rect x="602" y="108" width="11" height="11" rx="2" fill="#00FF41" opacity="0.08"><title>2026-07-04: 0</title></rect>
  <rect x="615" y="30" width="11" height="11" rx="2" fill="#00FF41" opacity="0.08"><title>2026-07-05: 0</title></rect>
  <rect x="615" y="43" width="11" height="11" rx="2" fill="#00FF41" opacity="0.08"><title>2026-07-06: 0</title></rect>
  <rect x="615" y="56" width="11" height="11" rx="2" fill="#00FF41" opacity="0.08"><title>2026-07-07: 0</title></rect>
  <rect x="615" y="69" width="11" height="11" rx="2" fill="#00FF41" opacity="0.08"><title>2026-07-08: 0</title></rect>
  <rect x="615" y="82" width="11" height="11" rx="2" fill="#00FF41" opacity="0.08"><title>2026-07-09: 0</title></rect>
  <rect x="615" y="95" width="11" height="11" rx="2" fill="#00FF41" opacity="0.08"><title>2026-07-10: 0</title></rect>
  <rect x="615" y="108" width="11" height="11" rx="2" fill="#00FF41" opacity="0.35"><title>2026-07-11: 1</title></rect>
  <rect x="628" y="30" width="11" height="11" rx="2" fill="#00FF41" opacity="0.08"><title>2026-07-12: 0</title></rect>
  <rect x="628" y="43" width="11" height="11" rx="2" fill="#00FF41" opacity="0.08"><title>2026-07-13: 0</title></rect>
  <rect x="628" y="56" width="11" height="11" rx="2" fill="#00FF41" opacity="0.08"><title>2026-07-14: 0</title></rect>
  <rect x="628" y="69" width="11" height="11" rx="2" fill="#00FF41" opacity="0.08"><title>2026-07-15: 0</title></rect>
  <rect x="628" y="82" width="11" height="11" rx="2" fill="#00FF41" opacity="0.35"><title>2026-07-16: 1</title></rect>
  <rect x="628" y="95" width="11" height="11" rx="2" fill="#00FF41" opacity="0.08"><title>2026-07-17: 0</title></rect>
  <rect x="628" y="108" width="11" height="11" rx="2" fill="#00FF41" opacity="0.08"><title>2026-07-18: 0</title></rect>
  <rect x="641" y="30" width="11" height="11" rx="2" fill="#00FF41" opacity="0.08"><title>2026-07-19: 0</title></rect>
  <rect x="641" y="43" width="11" height="11" rx="2" fill="#00FF41" opacity="0.08"><title>2026-07-20: 0</title></rect>
  <rect x="641" y="56" width="11" height="11" rx="2" fill="#00FF41" opacity="0.08"><title>2026-07-21: 0</title></rect>
  <rect x="641" y="69" width="11" height="11" rx="2" fill="#00FF41" opacity="0.08"><title>2026-07-22: 0</title></rect>
  <rect x="641" y="82" width="11" height="11" rx="2" fill="#00FF41" opacity="0.08"><title>2026-07-23: 0</title></rect>
  <rect x="641" y="95" width="11" height="11" rx="2" fill="#00FF41" opacity="0.08"><title>2026-07-24: 0</title></rect>
  <rect x="641" y="108" width="11" height="11" rx="2" fill="#00FF41" opacity="0.08"><title>2026-07-25: 0</title></rect>
  <rect x="654" y="30" width="11" height="11" rx="2" fill="#00FF41" opacity="0.08"><title>2026-07-26: 0</title></rect>
  <rect x="654" y="43" width="11" height="11" rx="2" fill="#00FF41" opacity="0.08"><title>2026-07-27: 0</title></rect>
  <rect x="654" y="56" width="11" height="11" rx="2" fill="#00FF41" opacity="0.55"><title>2026-07-28: 10</title></rect>
  <rect x="654" y="69" width="11" height="11" rx="2" fill="#00FF41" opacity="0.35"><title>2026-07-29: 1</title></rect>
  <rect x="654" y="82" width="11" height="11" rx="2" fill="#00FF41" opacity="0.35"><title>2026-07-30: 1</title></rect>
  <rect x="654" y="95" width="11" height="11" rx="2" fill="#00FF41" opacity="0.35"><title>2026-07-31: 5</title></rect>
  <rect x="654" y="108" width="11" height="11" rx="2" fill="#00FF41" opacity="0.08"><title>2026-08-01: 0</title></rect>
  <rect x="667" y="30" width="11" height="11" rx="2" fill="#00FF41" opacity="0.08"><title>2026-08-02: 0</title></rect>
  <rect x="667" y="43" width="11" height="11" rx="2" fill="#00FF41" opacity="0.35"><title>2026-08-03: 1</title></rect>
  <rect x="667" y="56" width="11" height="11" rx="2" fill="#00FF41" opacity="0.35"><title>2026-08-04: 1</title></rect>
  <rect x="667" y="69" width="11" height="11" rx="2" fill="#00FF41" opacity="0.08"><title>2026-08-05: 0</title></rect>
  <rect x="667" y="82" width="11" height="11" rx="2" fill="#00FF41" opacity="0.08"><title>2026-08-06: 0</title></rect>
  <rect x="667" y="95" width="11" height="11" rx="2" fill="#00FF41" opacity="0.08"><title>2026-08-07: 0</title></rect>
  <rect x="667" y="108" width="11" height="11" rx="2" fill="#00FF41" opacity="0.08"><title>2026-08-08: 0</title></rect>
  <rect x="680" y="30" width="11" height="11" rx="2" fill="#00FF41" opacity="0.08"><title>2026-08-09: 0</title></rect>
  <rect x="680" y="43" width="11" height="11" rx="2" fill="#00FF41" opacity="0.55"><title>2026-08-10: 10</title></rect>
  <rect x="680" y="56" width="11" height="11" rx="2" fill="#00FF41" opacity="0.35"><title>2026-08-11: 1</title></rect>
  <rect x="680" y="69" width="11" height="11" rx="2" fill="#00FF41" opacity="0.35"><title>2026-08-12: 2</title></rect>
  <rect x="680" y="82" width="11" height="11" rx="2" fill="#00FF41" opacity="0.08"><title>2026-08-13: 0</title></rect>
  <rect x="680" y="95" width="11" height="11" rx="2" fill="#00FF41" opacity="0.08"><title>2026-08-14: 0</title></rect>
  <rect x="680" y="108" width="11" height="11" rx="2" fill="#00FF41" opacity="0.08"><title>2026-08-15: 0</title></rect>
  <rect x="693" y="30" width="11" height="11" rx="2" fill="#00FF41" opacity="0.08"><title>2026-08-16: 0</title></rect>
  <rect x="693" y="43" width="11" height="11" rx="2" fill="#00FF41" opacity="0.08"><title>2026-08-17: 0</title></rect>
  <rect x="693" y="56" width="11" height="11" rx="2" fill="#00FF41" opacity="0.08"><title>2026-08-18: 0</title></rect>
  <rect x="693" y="69" width="11" height="11" rx="2" fill="#00FF41" opacity="0.08"><title>2026-08-19: 0</title></rect>
  <rect x="693" y="82" width="11" height="11" rx="2" fill="#00FF41" opacity="0.08"><title>2026-08-20: 0</title></rect>
  <rect x="693" y="95" width="11" height="11" rx="2" fill="#00FF41" opacity="0.08"><title>2026-08-21: 0</title></rect>
  <rect x="693" y="108" width="11" height="11" rx="2" fill="#00FF41" opacity="0.08"><title>2026-08-22: 0</title></rect>
  <rect x="706" y="30" width="11" height="11" rx="2" fill="#00FF41" opacity="0.08"><title>2026-08-23: 0</title></rect>
  <rect x="706" y="43" width="11" height="11" rx="2" fill="#00FF41" opacity="0.08"><title>2026-08-24: 0</title></rect>
</svg>